<?xml version="1.0" encoding="UTF-8"?>
<svg id="b" data-name="Layout" xmlns="http://www.w3.org/2000/svg" viewBox="0 0 255.118 255.118">
  <path d="M167.621,68.47l-13.859,24.005c-7.912,13.704-7.912,30.588,0,44.292l57.836,101.104h22.389c13.607,0,22.135-14.703,15.378-26.514l-81.745-142.886Z" fill="#001777"/>
  <path d="M154.545,45.566l-11.105-19.403c-6.806-11.891-23.955-11.887-30.756.006L30.308,170.229h26.94c15.82,0,30.438-8.437,38.352-22.136l58.945-102.528Z" fill="#001777"/>
  <path d="M17.632,192.798l-10.783,18.398c-6.922,11.811,1.595,26.675,15.285,26.675h163.659l-13.216-22.912c-7.91-13.713-22.537-22.161-38.367-22.161H17.632Z" fill="#001777"/>
</svg>