<?xml version="1.0" encoding="UTF-8"?>
<svg id="b" data-name="Layout" xmlns="http://www.w3.org/2000/svg" viewBox="0 0 985.75 308.902">
  <g>
    <g>
      <path d="M938.438,40.692l-7.373,12.771c-4.209,7.291-4.209,16.273,0,23.564l31.056,53.789h12.69c7.283,0,11.815-7.908,8.132-14.192l-44.505-75.933Z" fill="#001777"/>
      <path d="M931.467,28.797l-5.411-9.231c-3.641-6.213-12.622-6.213-16.264,0l-44.113,75.264h14.039c8.416,0,16.194-4.489,20.404-11.777l31.344-54.256Z" fill="#001777"/>
      <path d="M858.642,106.837l-5.737,9.788c-3.683,6.284.848,14.192,8.132,14.192h87.239l-7.031-12.19c-4.208-7.295-11.99-11.79-20.412-11.79h-62.191Z" fill="#001777"/>
    </g>
    <g>
      <path d="M1.498,94.603h39.202v97.554h30.712v-97.554h20.943c6.558,0,12.619-3.499,15.898-9.178l11.392-19.728H1.498v28.906Z" fill="#001777"/>
      <path d="M685.49,65.697l11.392,19.728c3.28,5.68,9.34,9.178,15.898,9.178h20.943v97.554h30.712v-97.554h39.202v-28.906h-118.147Z" fill="#001777"/>
      <path d="M219.682,145.998c7.828-3.55,13.848-8.55,18.065-14.994,4.214-6.441,6.323-13.82,6.323-22.13,0-8.55-2.049-16.079-6.143-22.582-4.095-6.504-9.846-11.563-17.252-15.175-7.406-3.614-15.989-5.42-25.744-5.42h-57.268v126.46h29.808v-40.829h21.36l25.25,40.829h33.963l-30.171-45.404c.605-.248,1.217-.486,1.808-.754ZM167.472,91.856l8.335.036h17.318c6.383,0,11.291,1.445,14.724,4.335,3.433,2.892,5.148,7.108,5.148,12.647,0,3.734-.784,6.865-2.348,9.394-1.568,2.529-3.826,4.457-6.775,5.78-2.953,1.328-6.535,1.988-10.75,1.988h-25.653v-34.179Z" fill="#001777"/>
      <rect x="265.502" y="65.697" width="30.712" height="126.46" fill="#001777"/>
      <path d="M411.565,151.87c-1.047,1.565-2.184,3.01-3.41,4.335-3.011,3.252-6.593,5.691-10.748,7.317-4.155,1.626-8.883,2.438-14.182,2.438-6.864,0-13.038-1.564-18.517-4.696-5.481-3.13-9.786-7.497-12.916-13.097-3.134-5.601-4.698-12.015-4.698-19.24s1.564-13.64,4.698-19.24c3.13-5.601,7.435-9.965,12.916-13.099,5.479-3.13,11.653-4.696,18.517-4.696,5.059,0,9.575.722,13.549,2.167,3.975,1.445,7.436,3.554,10.388,6.323,1.222,1.149,2.367,2.421,3.434,3.817,3.236,4.231,8.302,6.661,13.629,6.661h23.314c-2.168-9.15-6.143-17.343-11.924-24.568-5.78-7.226-13.159-12.917-22.13-17.072-8.974-4.155-19.059-6.233-30.26-6.233-12.645,0-24.148,2.891-34.505,8.671-10.36,5.781-18.489,13.702-24.389,23.756-5.901,10.058-8.852,21.227-8.852,33.513s2.95,23.456,8.852,33.512c5.9,10.058,14.029,17.975,24.389,23.756,10.357,5.78,21.859,8.671,34.505,8.671,11.202,0,21.318-2.109,30.351-6.323,9.033-4.215,16.53-10.146,22.491-17.795,5.961-7.648,10.086-16.468,12.375-26.466h-22.569c-5.732,0-11.12,2.823-14.307,7.588Z" fill="#001777"/>
      <path d="M658.545,71.297c-7.649-3.731-16.47-5.6-26.466-5.6h-53.835v126.46h29.856l-.034-36.059c8.004-.024,16.008-.048,24.013-.072,9.997,0,18.817-1.866,26.466-5.6,7.648-3.733,13.549-9.002,17.704-15.809,4.155-6.803,6.233-14.722,6.233-23.756s-2.078-16.95-6.233-23.756c-4.155-6.803-10.057-12.072-17.704-15.807ZM648.881,120.527c-1.688,2.71-4.127,4.787-7.317,6.232-3.181,1.44-6.93,2.162-11.247,2.167-.442-.028-10.083,0-22.265.002v-36.132h22.221c6.623,0,11.803,1.598,15.537,4.788,3.731,3.193,5.6,7.619,5.6,13.278,0,3.735-.844,6.956-2.529,9.666Z" fill="#001777"/>
      <path d="M496.613,141.573h30.916c9.571,0,17.322-7.771,17.298-17.342l-.025-9.756h-48.19v-20.775h57.598v-28.002h-88.311v126.46h89.213v-28.002h-58.501v-22.582Z" fill="#001777"/>
    </g>
  </g>
  <g>
    <path d="M67.465,252.025c-3.541-1.882-7.529-2.822-11.965-2.822h-15.037v43.908h15.037c4.436,0,8.424-.94,11.965-2.822,3.54-1.882,6.324-4.485,8.351-7.81,2.025-3.325,3.039-7.099,3.039-11.322s-1.014-7.998-3.039-11.322c-2.026-3.324-4.811-5.928-8.351-7.81ZM69.225,279.092c-1.302,2.28-3.135,4.036-5.503,5.27-2.367,1.233-5.108,1.85-8.222,1.85h-7.679v-30.108h7.679c3.113,0,5.854.617,8.222,1.851,2.368,1.234,4.201,2.99,5.503,5.269,1.301,2.28,1.952,4.925,1.952,7.936s-.651,5.656-1.952,7.935Z" fill="#001777"/>
    <path d="M109.856,262.626c-2.582-1.421-5.471-2.133-8.671-2.133s-6.089.712-8.67,2.133c-2.581,1.423-4.597,3.398-6.046,5.928-1.451,2.531-2.176,5.385-2.176,8.562s.725,6.032,2.176,8.562c1.449,2.53,3.465,4.506,6.046,5.927,2.581,1.423,5.471,2.133,8.67,2.133s6.089-.71,8.671-2.133c2.58-1.421,4.596-3.396,6.046-5.927s2.176-5.384,2.176-8.562-.726-6.031-2.176-8.562c-1.45-2.529-3.466-4.505-6.046-5.928ZM109.856,282.762c-.79,1.59-1.931,2.822-3.424,3.7-1.493.879-3.242,1.317-5.247,1.317s-3.754-.438-5.246-1.317c-1.494-.878-2.635-2.11-3.424-3.7-.789-1.589-1.184-3.471-1.184-5.646s.395-4.056,1.184-5.646c.789-1.589,1.93-2.822,3.424-3.701,1.492-.878,3.241-1.317,5.246-1.317s3.754.439,5.247,1.317c1.493.879,2.634,2.112,3.424,3.701.788,1.59,1.184,3.472,1.184,5.646s-.396,4.057-1.184,5.646Z" fill="#001777"/>
    <rect x="140.792" y="249.203" width="7.358" height="43.908" fill="#001777"/>
    <polygon points="155.189 256.102 169.585 256.102 169.585 293.111 176.944 293.111 176.944 256.102 191.341 256.102 191.341 249.203 155.189 249.203 155.189 256.102" fill="#001777"/>
    <path d="M230.916,275.767c-1.728-.605-3.957-1.182-6.687-1.726-1.834-.334-3.253-.647-4.255-.94-1.003-.292-1.834-.69-2.495-1.191-.662-.502-.992-1.15-.992-1.945,0-1.044.47-1.892,1.408-2.54.938-.647,2.495-.973,4.671-.973,2.432,0,4.169.356,5.215,1.066,1.045.712,1.652,1.716,1.823,3.011h7.039c0-1.546-.523-3.094-1.568-4.642-1.046-1.546-2.623-2.832-4.734-3.857-2.111-1.024-4.683-1.537-7.711-1.537-2.773,0-5.15.43-7.134,1.286-1.983.857-3.487,1.986-4.511,3.388-1.024,1.401-1.536,2.916-1.536,4.547,0,2.259.629,4.057,1.888,5.395,1.258,1.339,2.751,2.312,4.479,2.917,1.728.606,3.956,1.203,6.687,1.788,1.792.376,3.199.711,4.224,1.004,1.023.293,1.865.7,2.527,1.223.661.523.991,1.182.991,1.976,0,1.088-.565,1.987-1.695,2.697-1.131.712-2.976,1.066-5.534,1.066-2.432,0-4.267-.396-5.503-1.191-1.238-.794-1.963-1.965-2.176-3.513h-7.038c.085,2.007.692,3.816,1.823,5.426,1.13,1.61,2.793,2.886,4.991,3.826,2.196.941,4.831,1.411,7.902,1.411,3.113,0,5.736-.438,7.87-1.317,2.132-.878,3.731-2.048,4.799-3.513,1.065-1.463,1.6-3.094,1.6-4.893,0-2.258-.63-4.046-1.888-5.362-1.259-1.317-2.751-2.279-4.479-2.886Z" fill="#001777"/>
    <path d="M288.534,262.061c-1.791-1.045-3.882-1.568-6.271-1.568-2.646,0-4.895.587-6.75,1.757-1.855,1.171-3.382,2.571-4.575,4.202h-.32c-.726-1.588-1.931-2.979-3.615-4.171-1.686-1.191-3.85-1.788-6.494-1.788-2.176,0-4.159.544-5.95,1.631-1.792,1.088-3.072,2.321-3.84,3.701h-.319v-4.704h-6.399v31.99h6.719v-17.626c0-2.844.768-5.06,2.304-6.649,1.536-1.589,3.477-2.384,5.822-2.384,2.176,0,3.871.701,5.087,2.102,1.216,1.401,1.824,3.419,1.824,6.054v18.504h6.718v-17.626c0-2.844.769-5.06,2.304-6.649,1.536-1.589,3.477-2.384,5.823-2.384,2.175,0,3.871.701,5.087,2.102,1.216,1.401,1.823,3.419,1.823,6.054v18.504h6.719v-19.132c0-2.885-.502-5.331-1.504-7.339-1.003-2.007-2.399-3.533-4.191-4.579Z" fill="#001777"/>
    <path d="M327.183,265.825h-.32c-.981-1.547-2.442-2.822-4.383-3.826-1.941-1.004-4.106-1.506-6.495-1.506-2.773,0-5.301.69-7.582,2.07-2.282,1.38-4.095,3.335-5.438,5.865s-2.016,5.426-2.016,8.688.672,6.158,2.016,8.688c1.344,2.53,3.156,4.485,5.438,5.865,2.281,1.38,4.809,2.069,7.582,2.069,2.389,0,4.554-.502,6.495-1.505,1.94-1.004,3.401-2.279,4.383-3.826h.32v4.704h6.398v-31.99h-6.398v4.704ZM325.679,282.887c-.79,1.59-1.878,2.803-3.264,3.639-1.387.837-2.997,1.254-4.831,1.254-1.919,0-3.604-.407-5.055-1.223s-2.57-2.028-3.359-3.639c-.789-1.609-1.184-3.544-1.184-5.802s.395-4.192,1.184-5.803c.789-1.609,1.909-2.822,3.359-3.638s3.136-1.224,5.055-1.224c1.834,0,3.444.419,4.831,1.255,1.386.837,2.474,2.05,3.264,3.639.789,1.589,1.184,3.512,1.184,5.771s-.395,4.182-1.184,5.771Z" fill="#001777"/>
    <path d="M352.617,262.375c-1.6,1.046-2.72,2.195-3.359,3.45h-.319v-4.704h-6.399v31.99h6.719v-17.25c0-2.635.842-4.756,2.527-6.366,1.685-1.609,3.828-2.415,6.431-2.415h4.479v-6.272h-4.479c-2.134,0-3.999.522-5.599,1.567Z" fill="#001777"/>
    <polygon points="379.968 287.152 379.968 267.08 388.286 267.08 388.286 261.121 379.968 261.121 379.968 253.28 373.249 253.28 373.249 261.121 366.211 261.121 366.211 267.08 373.249 267.08 373.249 293.111 390.206 293.111 390.206 287.152 379.968 287.152" fill="#001777"/>
  </g>
  <path d="M396.7,292.742c-.837-.835-1.254-1.88-1.254-3.134s.417-2.297,1.254-3.134,1.88-1.253,3.134-1.253,2.297.418,3.133,1.253c.836.837,1.254,1.881,1.254,3.134s-.418,2.299-1.254,3.134-1.88,1.254-3.133,1.254-2.299-.419-3.134-1.254Z" fill="#001777"/>
</svg>