<?xml version="1.0" encoding="UTF-8"?>
<svg id="b" data-name="Layout" xmlns="http://www.w3.org/2000/svg" viewBox="0 0 983.267 255.118">
  <g>
    <path d="M937.43,63.331l-7.377,12.778c-4.211,7.295-4.211,16.282,0,23.576l31.072,53.817h12.697c7.287,0,11.821-7.912,8.136-14.199l-44.528-75.972Z" fill="#f5f5f3"/>
    <path d="M930.455,51.43l-5.414-9.236c-3.643-6.216-12.629-6.216-16.272,0l-44.136,75.303h14.047c8.421,0,16.202-4.491,20.415-11.783l31.361-54.284Z" fill="#f5f5f3"/>
    <path d="M857.591,129.51l-5.74,9.793c-3.685,6.287.849,14.199,8.136,14.199h87.284l-7.035-12.196c-4.21-7.299-11.996-11.796-20.423-11.796h-62.223Z" fill="#f5f5f3"/>
  </g>
  <g>
    <path d="M0,117.27h39.223v97.605h30.728v-97.605h20.954c6.562,0,12.625-3.5,15.907-9.183l11.398-19.738H0v28.921Z" fill="#f5f5f3"/>
    <path d="M684.349,88.349l11.397,19.738c3.281,5.683,9.345,9.183,15.907,9.183h20.954v97.605h30.728v-97.605h39.223v-28.921h-118.209Z" fill="#f5f5f3"/>
    <path d="M218.298,168.692c7.832-3.552,13.855-8.555,18.075-15.002,4.216-6.445,6.326-13.827,6.326-22.141,0-8.555-2.05-16.087-6.146-22.594-4.097-6.507-9.851-11.569-17.261-15.183-7.41-3.616-15.997-5.423-25.757-5.423h-57.298v126.526h29.824v-40.85h21.372l25.263,40.85h33.981l-30.187-45.428c.605-.248,1.218-.486,1.809-.754ZM166.061,114.522l8.339.036h17.327c6.386,0,11.297,1.446,14.731,4.337,3.434,2.893,5.151,7.112,5.151,12.653,0,3.736-.784,6.869-2.349,9.399-1.568,2.53-3.828,4.459-6.778,5.783-2.954,1.328-6.538,1.989-10.755,1.989h-25.667v-34.197Z" fill="#f5f5f3"/>
    <rect x="264.142" y="88.349" width="30.728" height="126.526" fill="#f5f5f3"/>
    <path d="M410.281,174.568c-1.048,1.566-2.185,3.012-3.411,4.337-3.013,3.254-6.597,5.694-10.754,7.321-4.157,1.627-8.888,2.439-14.19,2.439-6.867,0-13.045-1.565-18.527-4.699-5.484-3.132-9.791-7.501-12.923-13.104-3.135-5.604-4.7-12.021-4.7-19.25s1.565-13.647,4.7-19.25c3.132-5.604,7.438-9.97,12.923-13.105,5.482-3.131,11.66-4.699,18.527-4.699,5.062,0,9.58.723,13.556,2.168,3.977,1.446,7.44,3.556,10.394,6.326,1.223,1.149,2.368,2.422,3.436,3.819,3.237,4.234,8.306,6.664,13.636,6.664h23.326c-2.169-9.155-6.146-17.352-11.93-24.581-5.783-7.23-13.165-12.924-22.141-17.081-8.979-4.157-19.069-6.237-30.276-6.237-12.652,0-24.161,2.893-34.523,8.676-10.366,5.785-18.499,13.71-24.402,23.769-5.904,10.063-8.856,21.238-8.856,33.53s2.952,23.469,8.856,33.529c5.903,10.063,14.036,17.984,24.402,23.769,10.362,5.783,21.871,8.676,34.523,8.676,11.207,0,21.329-2.11,30.367-6.326,9.037-4.217,16.538-10.151,22.503-17.804,5.965-7.652,10.091-16.477,12.381-26.48h-22.581c-5.735,0-11.126,2.825-14.315,7.592Z" fill="#f5f5f3"/>
    <path d="M657.39,93.952c-7.653-3.733-16.478-5.603-26.48-5.603h-53.863v126.526h29.872l-.034-36.078c8.008-.024,16.017-.048,24.025-.072,10.002,0,18.827-1.867,26.48-5.603,7.652-3.735,13.556-9.007,17.713-15.817,4.157-6.806,6.237-14.73,6.237-23.769s-2.079-16.959-6.237-23.769c-4.157-6.806-10.062-12.078-17.713-15.816ZM647.721,143.208c-1.689,2.711-4.129,4.789-7.321,6.235-3.183,1.441-6.933,2.163-11.253,2.168-.442-.028-10.089,0-22.276.002v-36.151h22.232c6.626,0,11.809,1.599,15.545,4.79,3.733,3.194,5.603,7.623,5.603,13.284,0,3.737-.844,6.959-2.53,9.671Z" fill="#f5f5f3"/>
    <path d="M495.374,164.265h30.933c9.576,0,17.331-7.775,17.307-17.351l-.025-9.761h-48.215v-20.786h57.629v-28.017h-88.357v126.526h89.26v-28.017h-58.532v-22.593Z" fill="#f5f5f3"/>
  </g>
</svg>