<?xml version="1.0" encoding="UTF-8"?>
<svg id="b" data-name="Layout" xmlns="http://www.w3.org/2000/svg" viewBox="0 0 255.118 255.118">
  <path d="M167.502,67.9l-13.993,24.237c-7.988,13.836-7.988,30.883,0,44.72l58.395,102.081h22.606c13.739,0,22.349-14.845,15.526-26.77l-82.535-144.267Z" fill="#f5f5f3"/>
  <path d="M154.3,44.774l-11.213-19.59c-6.871-12.005-24.186-12.002-31.053.006L28.863,170.641h27.201c15.973,0,30.732-8.519,38.722-22.349l59.514-103.518Z" fill="#f5f5f3"/>
  <path d="M16.064,193.428l-10.888,18.576c-6.989,11.925,1.61,26.933,15.432,26.933h165.24l-13.344-23.133c-7.986-13.845-22.754-22.375-38.737-22.375H16.064Z" fill="#f5f5f3"/>
</svg>