<?xml version="1.0" encoding="UTF-8"?>
<svg id="b" data-name="Layout" xmlns="http://www.w3.org/2000/svg" viewBox="0 0 985.75 255.118">
  <path d="M1.241,85.484h48.054v119.582h37.647v-119.582h25.672c8.039,0,15.468-4.289,19.488-11.251l13.964-24.182H1.241v35.433Z" fill="#f5f5f3"/>
  <path d="M839.683,50.052l13.964,24.182c4.02,6.962,11.449,11.251,19.488,11.251h25.672v119.582h37.647v-119.582h48.054v-35.433h-144.826Z" fill="#f5f5f3"/>
  <path d="M268.693,148.486c9.595-4.352,16.975-10.481,22.145-18.38,5.165-7.896,7.75-16.94,7.75-27.127,0-10.481-2.511-19.71-7.53-27.681-5.02-7.973-12.069-14.174-21.148-18.602-9.079-4.43-19.599-6.644-31.557-6.644h-70.199v155.015h36.539v-50.048h26.184l30.951,50.048h41.633l-36.984-55.657c.742-.304,1.492-.596,2.216-.924ZM204.693,82.118l10.217.044h21.229c7.824,0,13.84,1.771,18.048,5.314,4.208,3.544,6.311,8.713,6.311,15.502,0,4.577-.961,8.415-2.878,11.515-1.922,3.1-4.69,5.463-8.304,7.085-3.619,1.627-8.01,2.436-13.177,2.436h-31.446v-41.898Z" fill="#f5f5f3"/>
  <rect x="324.859" y="50.052" width="37.647" height="155.015" fill="#f5f5f3"/>
  <path d="M503.904,155.684c-1.283,1.919-2.677,3.69-4.18,5.314-3.691,3.987-8.082,6.976-13.175,8.969-5.093,1.994-10.889,2.989-17.385,2.989-8.414,0-15.983-1.917-22.699-5.757-6.719-3.837-11.996-9.19-15.832-16.055-3.842-6.866-5.758-14.728-5.758-23.584s1.917-16.72,5.758-23.584c3.837-6.866,9.113-12.215,15.832-16.056,6.716-3.837,14.285-5.757,22.699-5.757,6.201,0,11.737.886,16.609,2.657,4.873,1.771,9.115,4.356,12.734,7.75,1.498,1.408,2.901,2.968,4.21,4.679,3.966,5.187,10.177,8.165,16.706,8.165h28.578c-2.657-11.216-7.53-21.259-14.617-30.116-7.085-8.858-16.13-15.834-27.127-20.927-11-5.093-23.362-7.641-37.093-7.641-15.501,0-29.601,3.544-42.296,10.63-12.7,7.087-22.664,16.796-29.897,29.121-7.234,12.329-10.85,26.021-10.85,41.08s3.616,28.753,10.85,41.079c7.232,12.329,17.197,22.034,29.897,29.121,12.695,7.085,26.795,10.63,42.296,10.63,13.731,0,26.132-2.585,37.204-7.75,11.072-5.167,20.262-12.437,27.57-21.813,7.307-9.375,12.363-20.187,15.169-32.443h-27.666c-7.026,0-13.631,3.461-17.538,9.301Z" fill="#f5f5f3"/>
  <path d="M806.654,56.916c-9.376-4.574-20.189-6.865-32.443-6.865h-65.991v155.015h36.598l-.041-44.201c9.812-.029,19.623-.059,29.435-.088,12.254,0,23.066-2.288,32.443-6.865,9.374-4.576,16.609-11.035,21.702-19.378,5.093-8.339,7.641-18.047,7.641-29.121s-2.547-20.777-7.641-29.121c-5.093-8.339-12.328-14.798-21.702-19.377ZM794.807,117.262c-2.069,3.322-5.059,5.868-8.969,7.639-3.891,1.761-8.474,2.647-13.751,2.657-.414-.035-12.305-.002-27.327.001v-44.29h27.238c8.118,0,14.468,1.959,19.045,5.869,4.574,3.914,6.865,9.339,6.865,16.275,0,4.579-1.034,8.526-3.1,11.848Z" fill="#f5f5f3"/>
  <path d="M608.157,143.061h37.898c11.732,0,21.234-9.526,21.204-21.258l-.03-11.959h-59.072v-25.467h70.605v-34.325h-108.252v155.015h109.358v-34.325h-71.711v-27.681Z" fill="#f5f5f3"/>
</svg>