<?xml version="1.0" encoding="UTF-8"?>
<svg id="b" data-name="Layout" xmlns="http://www.w3.org/2000/svg" viewBox="0 0 983.267 255.118">
  <g>
    <path d="M937.197,63.365l-7.373,12.771c-4.209,7.291-4.209,16.273,0,23.564l31.056,53.789h12.69c7.283,0,11.815-7.908,8.132-14.192l-44.505-75.933Z" fill="#001777"/>
    <path d="M930.225,51.47l-5.411-9.231c-3.641-6.213-12.622-6.213-16.264,0l-44.113,75.264h14.039c8.416,0,16.194-4.489,20.404-11.777l31.344-54.256Z" fill="#001777"/>
    <path d="M857.4,129.509l-5.737,9.788c-3.683,6.284.848,14.192,8.132,14.192h87.239l-7.031-12.19c-4.208-7.295-11.99-11.79-20.412-11.79h-62.191Z" fill="#001777"/>
  </g>
  <g>
    <path d="M.257,117.275h39.202v97.554h30.712v-97.554h20.943c6.558,0,12.619-3.499,15.898-9.178l11.392-19.728H.257v28.906Z" fill="#001777"/>
    <path d="M684.249,88.37l11.392,19.728c3.28,5.68,9.34,9.178,15.898,9.178h20.943v97.554h30.712v-97.554h39.202v-28.906h-118.147Z" fill="#001777"/>
    <path d="M218.441,168.671c7.828-3.55,13.848-8.55,18.065-14.994,4.214-6.441,6.323-13.82,6.323-22.13,0-8.55-2.049-16.079-6.143-22.582-4.095-6.504-9.846-11.563-17.252-15.175-7.406-3.614-15.989-5.42-25.744-5.42h-57.268v126.46h29.808v-40.829h21.36l25.25,40.829h33.963l-30.171-45.404c.605-.248,1.217-.486,1.808-.754ZM166.231,114.529l8.335.036h17.318c6.383,0,11.291,1.445,14.724,4.335,3.433,2.892,5.148,7.108,5.148,12.647,0,3.734-.784,6.865-2.348,9.394-1.568,2.529-3.826,4.457-6.775,5.78-2.953,1.328-6.535,1.988-10.75,1.988h-25.653v-34.179Z" fill="#001777"/>
    <rect x="264.261" y="88.37" width="30.712" height="126.46" fill="#001777"/>
    <path d="M410.324,174.543c-1.047,1.565-2.184,3.01-3.41,4.335-3.011,3.252-6.593,5.691-10.748,7.317-4.155,1.626-8.883,2.438-14.182,2.438-6.864,0-13.038-1.564-18.517-4.696-5.481-3.13-9.786-7.497-12.916-13.097-3.134-5.601-4.698-12.015-4.698-19.24s1.564-13.64,4.698-19.24c3.13-5.601,7.435-9.965,12.916-13.099,5.479-3.13,11.653-4.696,18.517-4.696,5.059,0,9.575.722,13.549,2.167,3.975,1.445,7.436,3.554,10.388,6.323,1.222,1.149,2.367,2.421,3.434,3.817,3.236,4.231,8.302,6.661,13.629,6.661h23.314c-2.168-9.15-6.143-17.343-11.924-24.568-5.78-7.226-13.159-12.917-22.13-17.072-8.974-4.155-19.059-6.233-30.26-6.233-12.645,0-24.148,2.891-34.505,8.671-10.36,5.781-18.489,13.702-24.389,23.756-5.901,10.058-8.852,21.227-8.852,33.513s2.95,23.456,8.852,33.512c5.9,10.058,14.029,17.975,24.389,23.756,10.357,5.78,21.859,8.671,34.505,8.671,11.202,0,21.318-2.109,30.351-6.323,9.033-4.215,16.53-10.146,22.491-17.795,5.961-7.648,10.086-16.468,12.375-26.466h-22.569c-5.732,0-11.12,2.823-14.307,7.588Z" fill="#001777"/>
    <path d="M657.304,93.97c-7.649-3.731-16.47-5.6-26.466-5.6h-53.835v126.46h29.856l-.034-36.059c8.004-.024,16.008-.048,24.013-.072,9.997,0,18.817-1.866,26.466-5.6,7.648-3.733,13.549-9.002,17.704-15.809,4.155-6.803,6.233-14.722,6.233-23.756s-2.078-16.95-6.233-23.756c-4.155-6.803-10.057-12.072-17.704-15.807ZM647.639,143.199c-1.688,2.71-4.127,4.787-7.317,6.232-3.181,1.44-6.93,2.162-11.247,2.167-.442-.028-10.083,0-22.265.002v-36.132h22.221c6.623,0,11.803,1.598,15.537,4.788,3.731,3.193,5.6,7.619,5.6,13.278,0,3.735-.844,6.956-2.529,9.666Z" fill="#001777"/>
    <path d="M495.372,164.245h30.916c9.571,0,17.322-7.771,17.298-17.342l-.025-9.756h-48.19v-20.775h57.598v-28.002h-88.311v126.46h89.213v-28.002h-58.501v-22.582Z" fill="#001777"/>
  </g>
</svg>