<?xml version="1.0" encoding="UTF-8"?>
<svg xmlns="http://www.w3.org/2000/svg" viewBox="0 0 865.148 226.772">
  <g id="a" data-name="Background">
    <rect width="865.148" height="226.772" rx="34.016" ry="34.016" fill="#16efef"/>
  </g>
  <g id="b" data-name="Layout">
    <g>
      <path d="M211.751,110.816c-.808,1.42-1.758,2.747-2.849,3.981-1.999,2.26-4.422,4.029-7.271,5.307-2.849,1.277-6.011,1.916-9.482,1.916-4.586,0-8.714-1.064-12.381-3.194-3.67-2.128-6.535-5.06-8.598-8.794-2.063-3.734-3.095-7.991-3.095-12.774s1.032-9.04,3.095-12.774,4.928-6.665,8.598-8.795c3.667-2.128,7.795-3.193,12.381-3.193,3.341,0,6.37.574,9.089,1.72,2.718,1.147,5.076,2.768,7.075,4.863,1.108,1.164,2.08,2.438,2.916,3.822,1.325,2.195,3.69,3.548,6.253,3.548h7.584c-1.311-4.651-3.488-8.859-6.534-12.626-3.046-3.766-6.829-6.732-11.349-8.893-4.52-2.162-9.531-3.243-15.033-3.243-6.682,0-12.759,1.557-18.227,4.667-5.471,3.112-9.777,7.387-12.922,12.823-3.144,5.438-4.717,11.464-4.717,18.08s1.572,12.643,4.717,18.08c3.145,5.438,7.451,9.713,12.922,12.823,5.469,3.112,11.545,4.667,18.227,4.667,5.437,0,10.448-1.081,15.033-3.242,4.585-2.162,8.451-5.191,11.595-9.089,3.145-3.897,5.405-8.368,6.78-13.413h-7.446c-2.64,0-5.055,1.437-6.36,3.732Z" fill="#f5f5f3"/>
      <path d="M288.002,66.354c-5.47-3.11-11.545-4.667-18.227-4.667s-12.759,1.557-18.227,4.667c-5.471,3.112-9.777,7.387-12.922,12.823-3.144,5.438-4.717,11.464-4.717,18.08s1.572,12.643,4.717,18.08c3.145,5.438,7.451,9.713,12.922,12.823,5.468,3.112,11.545,4.667,18.227,4.667s12.757-1.555,18.227-4.667c5.469-3.111,9.777-7.385,12.922-12.823,3.145-5.437,4.717-11.462,4.717-18.08s-1.572-12.642-4.717-18.08c-3.144-5.437-7.453-9.712-12.922-12.823ZM290.754,110.032c-2.063,3.734-4.93,6.666-8.598,8.794-3.67,2.13-7.797,3.194-12.381,3.194s-8.714-1.064-12.381-3.194c-3.67-2.128-6.535-5.06-8.598-8.794-2.063-3.734-3.095-7.991-3.095-12.774s1.032-9.04,3.095-12.774c2.063-3.734,4.928-6.665,8.598-8.795,3.667-2.128,7.795-3.193,12.381-3.193s8.711,1.065,12.381,3.193c3.667,2.13,6.534,5.061,8.598,8.795,2.063,3.734,3.095,7.993,3.095,12.774s-1.032,9.04-3.095,12.774Z" fill="#f5f5f3"/>
      <path d="M434.804,96.374c-3.113-1.31-7.19-2.62-12.234-3.931-3.8-1.048-6.797-1.98-8.991-2.801-2.196-.818-4.029-1.948-5.503-3.39-1.474-1.44-2.211-3.274-2.211-5.502,0-2.686,1.229-4.815,3.685-6.387,2.456-1.572,5.748-2.358,9.875-2.358,4.584,0,8.024.835,10.318,2.505,1.192.869,2.109,1.963,2.752,3.283,1.245,2.556,3.775,4.234,6.618,4.234h6.548c-.459-6.55-3.031-11.578-7.714-15.083-4.685-3.504-10.956-5.257-18.817-5.257-4.979,0-9.351.82-13.118,2.456-3.768,1.638-6.699,3.947-8.795,6.928-2.097,2.982-3.145,6.372-3.145,10.17,0,4.324,1.096,7.812,3.292,10.465,2.194,2.652,4.864,4.635,8.009,5.944,3.144,1.311,7.173,2.621,12.086,3.931,3.931,1.048,6.992,1.999,9.187,2.849,2.194.852,4.03,1.999,5.503,3.439,1.474,1.442,2.211,3.309,2.211,5.602,0,2.883-1.311,5.109-3.931,6.681-2.621,1.572-5.961,2.358-10.023,2.358-5.765,0-10.039-1.047-12.823-3.144-1.619-1.218-2.789-2.724-3.511-4.519-1.075-2.672-3.784-4.325-6.664-4.325h-6.284c.327,7.207,2.98,12.724,7.959,16.557,4.977,3.833,12.086,5.748,21.323,5.748,4.978,0,9.417-.82,13.315-2.456,3.897-1.637,6.943-3.963,9.138-6.977,2.194-3.012,3.292-6.485,3.292-10.416,0-4.387-1.115-7.925-3.341-10.612-2.228-2.685-4.898-4.683-8.008-5.994Z" fill="#f5f5f3"/>
      <path d="M501.181,103.841c0,5.765-1.425,10.236-4.274,13.413-2.849,3.179-6.895,4.766-12.135,4.766-3.473,0-6.452-.703-8.942-2.113-2.491-1.408-4.373-3.471-5.65-6.19-1.277-2.718-1.916-6.01-1.916-9.876v-40.975h-11.3v40.975c0,5.962,1.113,11.121,3.341,15.477,2.226,4.357,5.437,7.698,9.63,10.023,4.191,2.324,9.138,3.488,14.837,3.488s10.628-1.164,14.789-3.488c4.159-2.325,7.352-5.665,9.58-10.023,2.227-4.356,3.341-9.515,3.341-15.477v-40.975h-11.301v40.975Z" fill="#f5f5f3"/>
      <path d="M539.993,67.732c0-2.687-2.178-4.865-4.865-4.865h-6.435v68.783h46.183v-10.809h-34.883v-53.109Z" fill="#f5f5f3"/>
      <path d="M570.947,70.164v3.511h22.109v57.974h11.301v-57.974h14.811c4.031,0,7.298-3.267,7.298-7.298v-3.511h-48.22c-4.031,0-7.298,3.267-7.298,7.298Z" fill="#f5f5f3"/>
      <path d="M77.286,70.164v3.511h22.109v57.974h11.301v-57.974h14.811c4.031,0,7.298-3.267,7.298-7.298v-3.511h-48.22c-4.031,0-7.298,3.267-7.298,7.298Z" fill="#f5f5f3"/>
      <rect x="637.272" y="62.866" width="11.3" height="68.783" fill="#f5f5f3"/>
      <rect x="56.693" y="62.866" width="11.3" height="68.783" fill="#f5f5f3"/>
      <path d="M366.971,121.506h-2.969l-21.949-53.74c-1.272-3.114-4.301-5.148-7.664-5.148h-16.41v69.281h11.382v-58.888h2.969l21.95,53.742c1.271,3.112,4.299,5.146,7.661,5.146h16.412V62.617h-11.382v58.888Z" fill="#f5f5f3"/>
      <path d="M714.05,121.506h-2.969l-21.889-53.593c-1.308-3.202-4.423-5.295-7.882-5.295h-16.251v69.281h11.382v-58.888h2.969l21.889,53.593c1.308,3.202,4.423,5.295,7.882,5.295h16.251V62.617h-11.382v58.888Z" fill="#f5f5f3"/>
      <path d="M803.872,115.928c3.047-5.305,4.571-11.267,4.571-17.885,0-1.791-1.452-3.243-3.243-3.243h-29.212c-3.241,0-5.868,2.627-5.868,5.868v4.45h26.072c-.734,2.724-1.872,5.198-3.421,7.419-2.132,3.047-4.818,5.39-8.061,7.028-3.239,1.638-6.862,2.453-10.857,2.453-4.586,0-8.714-1.063-12.381-3.191-3.667-2.129-6.534-5.062-8.596-8.795-2.066-3.733-3.095-7.991-3.095-12.776s1.029-9.038,3.095-12.772c2.062-3.733,4.929-6.666,8.596-8.795,3.667-2.129,7.795-3.195,12.381-3.195,3.147,0,6.061.509,8.747,1.524,2.686,1.018,5.043,2.49,7.076,4.423,1.015.967,1.931,2.035,2.75,3.205,1.709,2.444,4.573,3.819,7.556,3.819h6.694c-1.443-4.781-3.752-8.957-6.928-12.528-3.18-3.571-6.995-6.338-11.447-8.304-4.457-1.963-9.271-2.948-14.447-2.948-8.419,0-15.877,2.472-22.374,7.416-2.384,1.814-4.515,3.957-6.312,6.354-4.782,6.378-7.18,13.64-7.18,21.801,0,8.347,2.505,15.755,7.501,22.216,1.7,2.199,3.684,4.174,5.89,5.865,6.521,4.998,14.013,7.49,22.475,7.49,6.419,0,12.266-1.487,17.542-4.471,5.272-2.977,9.433-7.124,12.477-12.429Z" fill="#f5f5f3"/>
      <g>
        <path d="M691.682,160.465h5.707v14.202h4.471v-14.202h3.049c.955,0,1.837-.509,2.314-1.336l1.658-2.872h-17.2v4.208Z" fill="#f5f5f3"/>
        <path d="M792.914,159.129c.478.827,1.36,1.336,2.314,1.336h3.049v14.202h4.471v-14.202h5.707v-4.208h-17.2l1.658,2.872Z" fill="#f5f5f3"/>
        <path d="M723.445,167.947c1.14-.517,2.016-1.245,2.63-2.183.613-.938.92-2.012.92-3.222,0-1.245-.298-2.341-.894-3.287-.596-.947-1.433-1.683-2.512-2.209-1.078-.526-2.328-.789-3.748-.789h-8.337v18.41h4.339v-5.944h3.11l3.676,5.944h4.944l-4.397-6.617c.088-.036.182-.063.268-.102ZM715.844,160.065l1.213.005h2.521c.929,0,1.644.21,2.143.631.5.421.75,1.035.75,1.841,0,.544-.114.999-.342,1.368-.228.368-.557.649-.986.841-.43.193-.951.289-1.565.289h-3.735v-4.976Z" fill="#f5f5f3"/>
        <rect x="730.115" y="156.257" width="4.471" height="18.41" fill="#f5f5f3"/>
        <path d="M751.378,168.802c-.152.228-.318.438-.496.631-.438.474-.96.828-1.565,1.065-.605.237-1.293.355-2.065.355-.999,0-1.898-.228-2.696-.684-.798-.456-1.425-1.091-1.88-1.907-.456-.815-.684-1.749-.684-2.801s.228-1.986.684-2.801c.456-.815,1.082-1.451,1.88-1.907.798-.456,1.697-.684,2.696-.684.736,0,1.394.105,1.972.316.579.21,1.082.517,1.512.92.178.167.345.352.5.556.471.616,1.209.97,1.984.97h3.394c-.316-1.332-.894-2.525-1.736-3.577-.841-1.052-1.916-1.88-3.222-2.485-1.306-.605-2.775-.907-4.405-.907-1.841,0-3.515.421-5.023,1.262-1.508.842-2.692,1.995-3.551,3.458-.859,1.464-1.289,3.09-1.289,4.879s.43,3.415,1.289,4.879c.859,1.464,2.042,2.617,3.551,3.458,1.508.841,3.182,1.262,5.023,1.262,1.631,0,3.103-.307,4.418-.92,1.315-.614,2.406-1.477,3.274-2.591.868-1.113,1.468-2.397,1.802-3.853h-3.286c-.834,0-1.619.411-2.083,1.105Z" fill="#f5f5f3"/>
        <path d="M787.333,157.072c-1.114-.543-2.398-.815-3.853-.815h-7.837v18.41h4.346l-.005-5.249c1.165-.003,2.331-.007,3.496-.01,1.455,0,2.739-.272,3.853-.815,1.113-.543,1.972-1.31,2.577-2.301.605-.99.907-2.143.907-3.458s-.303-2.467-.907-3.458c-.605-.99-1.464-1.757-2.577-2.301ZM785.926,164.239c-.246.395-.601.697-1.065.907-.463.21-1.009.315-1.637.315-.064-.004-1.468,0-3.241,0v-5.26h3.235c.964,0,1.718.233,2.262.697.543.465.815,1.109.815,1.933,0,.544-.123,1.013-.368,1.407Z" fill="#f5f5f3"/>
        <path d="M763.759,167.303h4.501c1.393,0,2.522-1.131,2.518-2.525l-.004-1.42h-7.015v-3.024h8.385v-4.076h-12.856v18.41h12.987v-4.076h-8.516v-3.287Z" fill="#f5f5f3"/>
        <path d="M661.769,164.963v-.132c.859-.315,1.526-.807,1.999-1.473.473-.666.711-1.455.711-2.367s-.241-1.727-.723-2.446c-.483-.718-1.175-1.279-2.078-1.684-.903-.403-1.968-.604-3.196-.604h-9.047v18.41h8.679c1.473,0,2.731-.228,3.774-.683,1.044-.456,1.828-1.091,2.354-1.907.526-.815.789-1.766.789-2.853s-.293-2.003-.88-2.749c-.588-.745-1.381-1.249-2.381-1.512ZM657.797,159.807c.491,0,.908.075,1.249.224.342.149.601.364.776.644.175.28.263.631.263,1.052,0,.614-.202,1.087-.605,1.419-.404.333-.965.5-1.684.5h-4.023v-3.84h4.023ZM660.204,170.157c-.219.325-.535.564-.947.722-.412.158-.908.237-1.486.237h-3.998v-4.313h3.998c.596,0,1.095.075,1.498.223.404.149.715.382.934.697s.329.719.329,1.209-.11.899-.329,1.224Z" fill="#f5f5f3"/>
        <polygon points="675.392 164.541 673.656 164.541 670.316 156.257 665.687 156.257 670.816 168.355 672.262 168.355 672.262 174.667 676.734 174.667 676.734 168.355 678.154 168.355 683.282 156.257 678.706 156.257 675.392 164.541" fill="#f5f5f3"/>
      </g>
    </g>
  </g>
</svg>