<?xml version="1.0" encoding="UTF-8"?>
<svg id="b" data-name="Layout" xmlns="http://www.w3.org/2000/svg" viewBox="0 0 226.772 226.772">
  <path d="M224.603,190.215L149.657,59.211l-12.706,22.009c-7.253,12.564-7.253,28.044.001,40.608l53.026,92.696h20.528c12.475,0,20.293-13.481,14.098-24.309Z" fill="#16efef"/>
  <path d="M83.625,132.212l54.044-94.002-10.182-17.789c-6.24-10.902-21.963-10.898-28.198.006L23.764,152.507h24.699c14.505,0,27.908-7.736,35.162-20.295Z" fill="#16efef"/>
  <path d="M119.024,173.199H12.141l-9.887,16.868c-6.347,10.828,1.462,24.457,14.014,24.457h150.048l-12.117-21.007c-7.251-12.572-20.663-20.318-35.176-20.318Z" fill="#16efef"/>
</svg>