<?xml version="1.0" encoding="UTF-8"?>
<svg id="b" data-name="Layout" xmlns="http://www.w3.org/2000/svg" viewBox="0 0 1503.758 226.772">
  <path d="M310.374,98.258c-1.616,2.84-3.515,5.494-5.698,7.963-3.998,4.521-8.843,8.057-14.542,10.614-5.699,2.554-12.021,3.832-18.964,3.832-9.172,0-17.427-2.129-24.762-6.388-7.34-4.256-13.069-10.121-17.196-17.588-4.127-7.467-6.19-15.982-6.19-25.548s2.063-18.081,6.19-25.548c4.127-7.467,9.856-13.33,17.196-17.59,7.335-4.256,15.59-6.386,24.762-6.386,6.681,0,12.74,1.148,18.178,3.439,5.436,2.293,10.152,5.537,14.15,9.727,2.216,2.327,4.159,4.875,5.832,7.644,2.651,4.389,7.379,7.096,12.507,7.096h15.168c-2.621-9.301-6.976-17.719-13.069-25.253-6.091-7.532-13.657-13.463-22.699-17.786C292.197,2.162,282.175,0,271.169,0,257.805,0,245.651,3.114,234.714,9.335c-10.942,6.223-19.554,14.773-25.843,25.647-6.289,10.876-9.433,22.928-9.433,36.16s3.145,25.287,9.433,36.16c6.289,10.877,14.901,19.425,25.843,25.647,10.937,6.224,23.091,9.335,36.455,9.335,10.873,0,20.895-2.162,30.067-6.485,9.17-4.324,16.902-10.382,23.19-18.178,6.289-7.794,10.81-16.737,13.56-26.825h-14.892c-5.28,0-10.109,2.874-12.72,7.463Z" fill="#001777"/>
  <path d="M462.877,9.335C451.937,3.114,439.786,0,426.422,0s-25.518,3.114-36.455,9.335c-10.942,6.223-19.554,14.773-25.843,25.647-6.289,10.876-9.433,22.928-9.433,36.16s3.145,25.287,9.433,36.16c6.289,10.877,14.901,19.425,25.843,25.647,10.937,6.224,23.091,9.335,36.455,9.335s25.515-3.111,36.455-9.335c10.937-6.222,19.554-14.77,25.843-25.647,6.289-10.873,9.434-22.925,9.434-36.16s-3.145-25.283-9.434-36.16c-6.289-10.874-14.906-19.424-25.843-25.647ZM468.38,96.689c-4.127,7.467-9.861,13.332-17.196,17.588-7.34,4.259-15.593,6.388-24.762,6.388s-17.427-2.129-24.762-6.388c-7.34-4.256-13.069-10.121-17.196-17.588-4.127-7.467-6.19-15.982-6.19-25.548s2.063-18.081,6.19-25.548c4.127-7.467,9.856-13.33,17.196-17.59,7.335-4.256,15.59-6.386,24.762-6.386s17.422,2.13,24.762,6.386c7.335,4.259,13.069,10.122,17.196,17.59,4.127,7.468,6.19,15.986,6.19,25.548s-2.063,18.081-6.19,25.548Z" fill="#001777"/>
  <path d="M756.481,69.373c-6.225-2.62-14.38-5.24-24.467-7.861-7.6-2.095-13.594-3.961-17.982-5.602-4.391-1.636-8.057-3.896-11.006-6.78-2.948-2.88-4.422-6.549-4.422-11.004,0-5.372,2.457-9.63,7.37-12.774,4.913-3.145,11.497-4.717,19.75-4.717,9.169,0,16.048,1.669,20.635,5.01,2.384,1.738,4.218,3.927,5.505,6.567,2.49,5.112,7.551,8.469,13.237,8.469h13.096c-.918-13.099-6.063-23.156-15.427-30.166C753.4,3.507,740.857,0,725.135,0c-9.958,0-18.703,1.639-26.235,4.913-7.536,3.277-13.398,7.895-17.59,13.855-4.194,5.964-6.289,12.744-6.289,20.34,0,8.647,2.192,15.624,6.584,20.93,4.388,5.305,9.729,9.269,16.017,11.889,6.289,2.622,14.346,5.241,24.172,7.861,7.861,2.097,13.984,3.998,18.374,5.699,4.388,1.705,8.059,3.998,11.006,6.877,2.948,2.885,4.422,6.617,4.422,11.204,0,5.766-2.622,10.218-7.861,13.362-5.241,3.145-11.922,4.717-20.045,4.717-11.53,0-20.079-2.094-25.645-6.289-3.238-2.436-5.579-5.449-7.022-9.037-2.15-5.344-7.568-8.649-13.328-8.65h-12.568c.654,14.414,5.96,25.449,15.918,33.114,9.955,7.665,24.172,11.497,42.645,11.497,9.956,0,18.833-1.639,26.629-4.913,7.794-3.273,13.885-7.927,18.277-13.954,4.388-6.024,6.584-12.97,6.584-20.831,0-8.775-2.229-15.85-6.683-21.224-4.455-5.371-9.795-9.366-16.016-11.988Z" fill="#001777"/>
  <path d="M889.233,84.308c0,11.531-2.85,20.473-8.549,26.825-5.699,6.358-13.79,9.532-24.271,9.532-6.946,0-12.905-1.406-17.883-4.226-4.982-2.816-8.746-6.943-11.301-12.38-2.554-5.436-3.832-12.02-3.832-19.752V2.358h-22.6v81.949c0,11.924,2.226,22.241,6.681,30.954,4.452,8.714,10.873,15.396,19.259,20.045,8.382,4.648,18.277,6.976,29.675,6.976s21.255-2.328,29.578-6.976c8.319-4.65,14.705-11.331,19.16-20.045,4.454-8.713,6.683-19.03,6.683-30.954V2.358h-22.601v81.949Z" fill="#001777"/>
  <path d="M966.857,12.089c0-5.374-4.357-9.731-9.731-9.731h-12.869v137.566h92.365v-21.618h-69.765V12.089Z" fill="#001777"/>
  <path d="M1028.765,16.954v7.021h44.217v115.949h22.601V23.976h29.621c8.061,0,14.596-6.535,14.596-14.596V2.358h-96.44c-8.061,0-14.596,6.535-14.596,14.596Z" fill="#001777"/>
  <path d="M41.444,16.954v7.021h44.217v115.949h22.601V23.976h29.621c8.061,0,14.596-6.535,14.596-14.596V2.358H56.04c-8.061,0-14.596,6.535-14.596,14.596Z" fill="#001777"/>
  <rect x="1161.416" y="2.358" width="22.6" height="137.566" fill="#001777"/>
  <rect x=".258" y="2.358" width="22.6" height="137.566" fill="#001777"/>
  <path d="M620.814,119.637h-5.937l-43.897-107.48c-2.543-6.227-8.601-10.296-15.328-10.296h-32.819v138.561h22.764V22.645h5.937l43.899,107.484c2.542,6.225,8.598,10.292,15.321,10.292h32.824V1.861h-22.764v117.776Z" fill="#001777"/>
  <path d="M1314.97,119.637h-5.937l-43.778-107.186c-2.616-6.405-8.846-10.59-15.765-10.59h-32.502v138.561h22.764V22.645h5.937l43.778,107.186c2.616,6.405,8.846,10.59,15.764,10.59h32.502V1.861h-22.764v117.776Z" fill="#001777"/>
  <path d="M1494.616,108.483c6.095-10.61,9.142-22.533,9.142-35.77,0-3.582-2.904-6.486-6.486-6.486h-58.424c-6.482,0-11.736,5.254-11.736,11.736v8.901h52.145c-1.469,5.447-3.745,10.396-6.842,14.838-4.265,6.094-9.636,10.78-16.122,14.055-6.478,3.276-13.724,4.907-21.714,4.907-9.171,0-17.427-2.125-24.761-6.382-7.334-4.257-13.067-10.123-17.191-17.59-4.132-7.467-6.19-15.981-6.19-25.551s2.059-18.077,6.19-25.543c4.124-7.467,9.857-13.333,17.191-17.59,7.334-4.257,15.59-6.39,24.761-6.39,6.294,0,12.123,1.018,17.494,3.047,5.371,2.036,10.086,4.98,14.151,8.846,2.029,1.933,3.863,4.069,5.5,6.41,3.418,4.888,9.146,7.638,15.111,7.638h13.388c-2.885-9.562-7.504-17.914-13.856-25.057-6.36-7.142-13.989-12.676-22.895-16.608C1454.559,1.97,1444.931,0,1434.579,0c-16.837,0-31.753,4.944-44.748,14.832-4.768,3.628-9.03,7.913-12.624,12.707-9.564,12.756-14.359,27.281-14.359,43.602,0,16.693,5.011,31.509,15.003,44.432,3.4,4.397,7.367,8.347,11.779,11.729,13.042,9.997,28.025,14.98,44.949,14.98,12.838,0,24.533-2.974,35.084-8.943,10.543-5.954,18.866-14.247,24.953-24.857Z" fill="#001777"/>
  <g>
    <path d="M1270.212,197.58h11.414v28.403h8.942v-28.403h6.098c1.91,0,3.674-1.019,4.629-2.672l3.317-5.744h-34.399v8.416Z" fill="#001777"/>
    <path d="M1472.675,194.907c.955,1.654,2.719,2.672,4.629,2.672h6.098v28.403h8.942v-28.403h11.414v-8.416h-34.399l3.317,5.744Z" fill="#001777"/>
    <path d="M1333.737,212.544c2.279-1.034,4.032-2.489,5.26-4.366,1.227-1.875,1.841-4.024,1.841-6.443,0-2.489-.597-4.682-1.788-6.575-1.192-1.894-2.867-3.366-5.023-4.418-2.156-1.052-4.655-1.578-7.495-1.578h-16.674v36.819h8.679v-11.887h6.219l7.352,11.887h9.889l-8.794-13.234c.176-.072.365-.127.536-.205ZM1318.536,196.78l2.427.011h5.042c1.858,0,3.287.421,4.287,1.262,1,.842,1.499,2.069,1.499,3.682,0,1.087-.228,1.999-.684,2.735-.456.736-1.114,1.297-1.972,1.683-.86.386-1.903.579-3.13.579h-7.469v-9.952Z" fill="#001777"/>
    <rect x="1347.077" y="189.163" width="8.942" height="36.819" fill="#001777"/>
    <path d="M1389.604,214.253c-.305.456-.636.876-.993,1.262-.877.947-1.92,1.657-3.129,2.13-1.21.474-2.586.71-4.129.71-1.998,0-3.796-.455-5.391-1.367-1.596-.911-2.849-2.183-3.76-3.813-.912-1.631-1.368-3.498-1.368-5.602s.455-3.971,1.368-5.602c.911-1.631,2.165-2.901,3.76-3.814,1.595-.911,3.393-1.367,5.391-1.367,1.473,0,2.788.21,3.945.631,1.157.421,2.165,1.035,3.025,1.841.356.334.689.705,1,1.111.942,1.232,2.417,1.939,3.968,1.939h6.788c-.631-2.664-1.788-5.049-3.472-7.153-1.683-2.104-3.831-3.761-6.443-4.971-2.613-1.21-5.549-1.815-8.81-1.815-3.682,0-7.031.842-10.046,2.525-3.016,1.683-5.383,3.99-7.101,6.917-1.718,2.928-2.577,6.18-2.577,9.757s.859,6.829,2.577,9.757c1.718,2.928,4.085,5.233,7.101,6.917,3.015,1.683,6.365,2.525,10.046,2.525,3.261,0,6.207-.614,8.837-1.841,2.63-1.227,4.813-2.954,6.548-5.181,1.736-2.227,2.937-4.795,3.603-7.706h-6.571c-1.669,0-3.238.822-4.166,2.209Z" fill="#001777"/>
    <path d="M1461.514,190.794c-2.227-1.086-4.795-1.63-7.706-1.63h-15.674v36.819h8.693l-.01-10.499c2.331-.007,4.661-.014,6.991-.021,2.911,0,5.479-.543,7.706-1.63,2.227-1.087,3.945-2.621,5.155-4.603,1.21-1.981,1.815-4.286,1.815-6.917s-.605-4.935-1.815-6.917c-1.21-1.98-2.928-3.515-5.155-4.602ZM1458.7,205.127c-.491.789-1.202,1.394-2.13,1.814-.926.419-2.018.63-3.275.631-.129-.008-2.936,0-6.482,0v-10.52h6.47c1.928,0,3.436.465,4.523,1.394,1.086.93,1.631,2.218,1.631,3.866,0,1.088-.246,2.025-.736,2.814Z" fill="#001777"/>
    <path d="M1414.366,211.255h9.001c2.787,0,5.043-2.263,5.037-5.049l-.007-2.841h-14.031v-6.049h16.77v-8.153h-25.712v36.819h25.975v-8.153h-17.033v-6.575Z" fill="#001777"/>
    <path d="M1210.385,206.574v-.264c1.718-.631,3.051-1.613,3.998-2.946.947-1.333,1.421-2.91,1.421-4.734s-.483-3.454-1.447-4.892c-.965-1.436-2.351-2.558-4.156-3.367-1.807-.806-3.937-1.209-6.391-1.209h-18.094v36.819h17.358c2.946,0,5.461-.456,7.547-1.367,2.087-.911,3.656-2.182,4.708-3.814,1.052-1.63,1.577-3.532,1.577-5.706s-.586-4.006-1.761-5.497c-1.176-1.491-2.762-2.499-4.761-3.024ZM1202.442,196.263c.982,0,1.815.15,2.499.449.685.297,1.202.727,1.552,1.288.35.561.527,1.261.527,2.104,0,1.227-.404,2.174-1.21,2.839-.807.666-1.929.999-3.367.999h-8.047v-7.68h8.047ZM1207.256,216.964c-.439.649-1.071,1.129-1.894,1.445-.824.316-1.815.474-2.971.474h-7.996v-8.626h7.996c1.191,0,2.191.149,2.997.447.807.297,1.43.763,1.868,1.394s.658,1.438.658,2.419-.219,1.798-.658,2.448Z" fill="#001777"/>
    <polygon points="1237.633 205.731 1234.16 205.731 1227.48 189.163 1218.223 189.163 1228.479 213.36 1231.372 213.36 1231.372 225.983 1240.315 225.983 1240.315 213.36 1243.155 213.36 1253.412 189.163 1244.26 189.163 1237.633 205.731" fill="#001777"/>
  </g>
</svg>